<svg width="700" height="450" viewBox="0 0 700 450" fill="none" xmlns="http://www.w3.org/2000/svg">
<path d="M17.193 112.769L-3.05176e-05 168.508C-3.05176e-05 168.508 61.4546 189.86 65.1023 189.86C68.75 189.86 102.091 179.428 102.091 179.428L108.341 175.269L112.5 172.667L121.886 175.269L133.852 176.826L146.886 175.269L159.386 178.917L169.795 179.962L178.136 176.826H184.386L194.284 182.031L207.295 184.121H209.898L247.931 183.076L285.943 181.519H313.034L336.988 186.724H351.045L364.591 185.167L373.977 182.031L416.681 177.871H439.079L455.227 178.405H475.534H483.852L492.193 175.269L498.977 172.155L503.648 170.065L513.034 171.621C513.034 171.621 518.75 172.155 520.329 172.155H529.181C529.181 172.155 538.034 174.758 539.591 174.758C541.148 174.758 547.931 172.155 547.931 172.155L560.432 169.019C560.432 169.019 565.636 168.508 567.193 169.019C568.75 169.531 576.579 172.667 576.579 172.667H584.386L596.886 172.155H602.091H607.829L618.75 172.667L628.648 177.871L635.943 181.008L644.284 185.678L650 188.281L654.693 178.917L657.295 177.36L662.5 176.315L675 178.917L700 133.076C700 133.076 686.988 111.212 640.636 113.815L620.841 116.417H614.591L607.295 114.86L597.398 114.326H588.545L581.784 115.371L576.045 111.724L563.034 111.212L552.602 112.258L541.681 116.417L534.386 115.905L527.091 115.371L519.795 114.326L517.193 111.724C517.193 111.724 514.079 110.678 510.431 110.678C506.784 110.678 495.329 111.212 495.329 111.212L485.943 113.815L433.341 119.531L384.386 125.269L364.591 124.758L339.591 124.224C339.591 124.224 321.352 123.178 318.238 123.178H280.738H246.352C243.238 123.178 222.398 122.667 222.398 122.667L215.636 124.224L213.034 125.781C213.034 125.781 197.398 115.371 193.75 114.86C190.102 114.326 187.5 114.326 187.5 114.326H181.784H174.488L169.795 116.928L164.591 120.065L147.931 117.462L142.193 116.928L129.693 119.019L125 114.326L118.75 110.678L114.079 109.633L105.738 111.724L93.75 115.371L84.8977 120.576L73.9546 127.36L70.3292 130.474L17.193 112.769Z" fill="#93D2F6"/>
<path d="M213.548 168.499L247.4 171.635L253.138 164.339L314.593 165.363C314.593 165.363 316.15 162.76 319.798 163.294C323.445 163.806 328.138 167.453 328.65 172.658C329.184 177.885 321.355 241.408 320.843 249.749C320.309 258.089 320.843 264.851 320.843 264.851L318.241 265.385L312.502 275.26H307.298L304.695 275.794L301.048 276.306C301.048 276.306 302.093 284.135 298.957 284.646C295.843 285.158 293.752 285.692 293.752 283.601V277.351L289.059 275.26L288.036 272.658L278.65 271.635C278.65 271.635 280.741 275.794 277.093 276.839C273.445 277.885 269.798 277.351 269.798 277.351L267.195 269.01L242.707 265.385C242.707 265.385 242.195 273.703 238.548 274.749C234.9 275.794 223.445 262.76 223.445 262.76L216.15 260.158L215.105 254.953L210.434 253.396V249.237L209.9 247.146H216.15C216.15 247.146 209.9 188.294 213.548 168.499Z" fill="#BD93F6"/>
<path d="M311.928 10.2558L312.573 44.2416L320.447 49.1348L326.23 110.322C326.23 110.322 328.988 111.59 328.877 115.282C328.743 118.952 325.652 124.024 320.536 125.113C315.42 126.203 251.386 125.469 243.067 125.892C234.726 126.292 228.054 127.56 228.054 127.56L227.231 125.024L216.777 120.42L216.199 115.26L215.398 112.725L214.464 109.144C214.464 109.144 206.813 111.056 205.945 108.009C205.1 104.962 204.344 102.938 206.412 102.716C208.481 102.493 212.618 102.026 212.618 102.026L214.175 97.133L216.644 95.7985V86.3679C216.644 86.3679 212.729 88.9035 211.306 85.3892C209.86 81.8972 209.971 78.2051 209.971 78.2051L217.956 74.6908L218.89 49.9578C218.89 49.9578 210.549 50.3804 209.104 46.8661C207.658 43.3519 219.335 30.5183 219.335 30.5183L221.114 23.0004L226.185 21.3768L227.209 16.5503L231.346 16.0832L233.37 15.3492L234.059 21.5547C234.059 21.5547 291.866 8.83232 311.928 10.2558Z" fill="#F69393"/>
<path d="M488.303 115.778L454.317 114.955L449.09 122.607L387.702 125.721C387.702 125.721 386.323 128.434 382.653 128.167C378.984 127.878 374.046 124.564 373.178 119.404C372.311 114.244 375.803 50.3203 375.758 41.9573C375.714 33.6165 374.735 26.8995 374.735 26.8995L377.315 26.21L382.342 15.9341L387.547 15.6005L390.105 14.8887L393.708 14.1325C393.708 14.1325 392.151 6.39231 395.22 5.68058C398.312 4.94659 400.358 4.27933 400.491 6.37007C400.647 8.43858 400.914 12.5978 400.914 12.5978L405.741 14.3549L406.942 16.8905L416.372 17.2909C416.372 17.2909 414.015 13.2651 417.596 11.9973C421.154 10.7073 424.824 10.9742 424.824 10.9742L427.983 19.1147L452.649 21.0943C452.649 21.0943 452.604 12.7535 456.186 11.4635C459.744 10.1735 472.066 22.3843 472.066 22.3843L479.517 24.4973L480.896 29.613L485.678 30.8585L485.967 35.0178L486.613 37.064L480.385 37.4866C480.385 37.4866 490.594 95.7829 488.303 115.778Z" fill="#F6DA93"/>
<path d="M376.383 277.562L379.497 243.71L372.224 237.972L373.247 176.517C373.247 176.517 370.645 174.96 371.179 171.312C371.69 167.665 375.338 162.972 380.543 162.46C385.747 161.926 449.293 169.755 457.633 170.267C465.974 170.801 472.736 170.267 472.736 170.267L473.27 172.869L483.145 178.608V183.812L483.679 186.415L484.19 190.062C484.19 190.062 492.02 189.017 492.531 192.153C493.043 195.267 493.576 197.358 491.486 197.358H485.236L483.145 202.051L480.543 203.074L479.52 212.46C479.52 212.46 483.679 210.369 484.724 214.017C485.77 217.665 485.236 221.312 485.236 221.312L476.895 223.915L473.27 248.403C473.27 248.403 481.588 248.915 482.633 252.562C483.679 256.21 470.645 267.665 470.645 267.665L468.043 274.96L462.838 276.005L461.281 280.698H457.122L455.031 281.21V274.96C455.031 274.96 396.179 281.21 376.383 277.562Z" fill="#95F492"/>
<path d="M205.416 1.04532L201.613 137.834L331.439 134.052L325.122 1.04532H205.416Z" stroke="#141316" stroke-width="2.09075"/>
<path d="M364.377 1.04536H496.739L499.898 133.407L363.754 134.052L364.377 1.04536Z" stroke="#141316" stroke-width="2.09075"/>
<path d="M365.645 158.741L501.165 160.009L493.581 288.568L361.842 287.3L365.645 158.741Z" stroke="#141316" stroke-width="2.09075"/>
<path d="M333.979 156.842L327.64 290.472L206.688 291.739V157.464L333.979 156.842Z" stroke="#141316" stroke-width="2.09075"/>
<path d="M14.7865 147.342H696.237" stroke="#141316" stroke-width="2.09075"/>
<path d="M46.359 245.821L77.9426 242.351C77.9426 242.351 89.2415 383.454 104.299 402.871L105.478 403.45C105.478 403.45 158.214 339.126 150.096 250.447C150.096 250.447 175.296 247.266 182.258 242.64C182.258 242.64 190.087 320.865 111.839 422.578L114.753 436.19L86.3501 449.513C86.3501 449.513 51.5858 358.832 46.359 245.821Z" fill="#1E293B"/>
<path d="M194.715 308.697L172.696 309.853C172.696 309.853 166.891 404.893 167.758 409.253C168.625 413.59 176.165 442.571 203.99 444.884C203.99 444.884 208.906 446.619 229.19 431.851C249.475 417.06 255.28 408.385 256.726 393.305C258.172 378.247 263.955 308.118 263.955 308.118L241.646 310.721C241.646 310.721 239.911 397.642 235.863 408.652C231.815 419.684 224.275 432.718 203.412 424.889C182.549 417.06 187.464 396.775 187.754 388.679C188.043 380.56 194.715 308.697 194.715 308.697Z" fill="#1E293B"/>
<path d="M277.876 310.147L299.317 307.834L293.534 426.628L336.995 425.472L330.612 441.708H272.093L277.876 310.147Z" fill="#1E293B"/>
<path d="M387.507 425.271C381.257 428.919 358.347 425.783 357.302 424.226C356.257 422.669 358.347 383.612 358.347 383.612C396.359 386.214 393.757 421.624 387.507 425.271ZM363.552 325.783C363.552 325.783 386.995 329.964 384.904 350.271C382.814 370.578 373.45 366.931 359.904 364.862L363.552 325.783ZM386.461 369.021C407.814 355.476 403.654 335.681 403.654 335.681C397.404 304.431 355.211 308.612 355.211 308.612L341.154 318.51L335.95 441.419H377.609C404.7 428.919 408.859 412.26 409.904 399.226C410.95 386.214 386.461 369.021 386.461 369.021Z" fill="#1E293B"/>
<path d="M437.507 388.292L461.995 341.406L466.666 389.337L437.507 388.292ZM477.097 307.553L456.768 310.69L458.859 321.099L398.961 440.894L415.643 441.939L430.211 403.394L468.757 402.349L474.495 442.985L497.916 441.428C497.916 441.428 477.097 320.587 477.097 307.553Z" fill="#1E293B"/>
<path d="M620.32 267.978L595.32 286.217C595.32 286.217 573.434 266.421 561.468 265.376C549.48 264.33 542.184 265.376 540.116 278.921C538.025 292.467 548.968 298.717 559.377 309.126C569.809 319.535 615.116 363.285 617.184 374.74C619.275 386.217 621.877 402.876 595.832 427.876C569.809 452.876 551.059 444.535 535.934 437.774C520.832 430.99 502.082 416.933 502.082 416.933L521.877 393.49C521.877 393.49 554.684 417.978 572.411 416.933C590.116 415.887 595.32 414.33 595.32 402.364C595.32 390.376 580.73 374.74 568.23 363.819C555.73 352.876 515.116 311.217 516.161 298.717C517.184 286.217 520.832 271.626 534.377 261.217C547.923 250.785 572.923 234.637 591.161 246.092C609.377 257.569 620.32 267.978 620.32 267.978Z" fill="#1E293B"/>
<path d="M407.82 61.2055L382.82 79.444C382.82 79.444 360.934 59.6486 348.968 58.6032C336.98 57.5579 329.684 58.6032 327.616 72.1486C325.525 85.694 336.468 91.944 346.877 102.353C357.309 112.762 402.616 156.512 404.684 167.967C406.775 179.444 409.377 196.103 383.332 221.103C357.309 246.103 338.559 237.762 323.434 231.001C308.332 224.217 289.582 210.16 289.582 210.16L309.377 186.717C309.377 186.717 342.184 211.206 359.911 210.16C377.616 209.115 382.82 207.558 382.82 195.592C382.82 183.603 368.23 167.967 355.73 157.046C343.23 146.103 302.616 104.444 303.661 91.944C304.684 79.444 308.332 64.8532 321.877 54.444C335.423 44.0124 360.423 27.8648 378.661 39.3194C396.877 50.7963 407.82 61.2055 407.82 61.2055Z" fill="#1E293B"/>
<path d="M462.507 120.583L475.518 108.594L488.018 120.071L475.007 132.571L462.507 120.583Z" fill="#1E293B"/>
<path d="M413.548 55.9987L423.445 47.1464V36.7371C423.445 36.7371 427.093 37.2487 439.593 29.9533H442.195L440.105 46.6126L456.786 45.5894L452.605 58.601H439.593C439.593 58.601 435.434 105.999 438.036 108.601C440.638 111.203 441.15 116.408 450.536 116.942C450.536 116.942 444.286 130.999 435.434 131.51C435.434 131.51 418.752 129.442 418.752 109.135C418.752 88.8056 421.888 58.601 421.888 58.601L413.036 58.0894L413.548 55.9987Z" fill="#1E293B"/>
</svg>
