<svg xmlns="http://www.w3.org/2000/svg" version="1.1" xmlns:xlink="http://www.w3.org/1999/xlink" xmlns:svgjs="http://svgjs.dev/svgjs" width="303" height="293"><svg width="303" height="293" viewBox="0 0 303 293" fill="none" xmlns="http://www.w3.org/2000/svg">
<path d="M13.5476 168.499L47.3999 171.635L53.1383 164.339L114.593 165.362C114.593 165.362 116.15 162.76 119.798 163.294C123.445 163.806 128.138 167.453 128.65 172.658C129.184 177.885 121.355 241.408 120.843 249.749C120.309 258.089 120.843 264.851 120.843 264.851L118.241 265.385L112.502 275.26H107.298L104.695 275.794L101.048 276.306C101.048 276.306 102.093 284.135 98.9569 284.646C95.843 285.158 93.7523 285.692 93.7523 283.601V277.351L89.0592 275.26L88.036 272.658L78.6499 271.635C78.6499 271.635 80.7407 275.794 77.093 276.839C73.4453 277.885 69.7976 277.351 69.7976 277.351L67.1953 269.01L42.7069 265.385C42.7069 265.385 42.1953 273.703 38.5476 274.749C34.8999 275.794 23.4453 262.76 23.4453 262.76L16.1499 260.158L15.1045 254.953L10.4337 253.396V249.237L9.89993 247.146H16.1499C16.1499 247.146 9.8999 188.294 13.5476 168.499Z" fill="#BD93F6"></path>
<path d="M111.928 10.2558L112.573 44.2416L120.447 49.1348L126.23 110.322C126.23 110.322 128.988 111.59 128.877 115.282C128.743 118.952 125.652 124.024 120.536 125.113C115.42 126.203 51.3856 125.469 43.0671 125.892C34.7264 126.292 28.0538 127.56 28.0538 127.56L27.2308 125.024L16.7771 120.42L16.1988 115.26L15.3981 112.725L14.4639 109.144C14.4639 109.144 6.81271 111.056 5.94527 108.009C5.10008 104.962 4.34385 102.938 6.41235 102.716C8.48086 102.493 12.6178 102.026 12.6178 102.026L14.1748 97.133L16.6437 95.7985V86.3679C16.6437 86.3679 12.7291 88.9035 11.3056 85.3892C9.85986 81.8972 9.97107 78.2051 9.97107 78.2051L17.9559 74.6908L18.8901 49.9577C18.8901 49.9577 10.5494 50.3803 9.10364 46.8661C7.65792 43.3519 19.3349 30.5182 19.3349 30.5182L21.1143 23.0004L26.1855 21.3768L27.2086 16.5503L31.3456 16.0832L33.3696 15.3492L34.0591 21.5547C34.0591 21.5547 91.8661 8.83231 111.928 10.2558Z" fill="#F69393"></path>
<path d="M288.303 115.778L254.317 114.955L249.09 122.607L187.702 125.721C187.702 125.721 186.323 128.434 182.653 128.167C178.984 127.878 174.046 124.564 173.178 119.404C172.311 114.244 175.803 50.3203 175.758 41.9573C175.714 33.6165 174.735 26.8994 174.735 26.8994L177.315 26.2099L182.342 15.9341L187.547 15.6005L190.105 14.8887L193.708 14.1325C193.708 14.1325 192.151 6.3923 195.22 5.68056C198.312 4.94658 200.358 4.27931 200.491 6.37006C200.647 8.43856 200.914 12.5978 200.914 12.5978L205.741 14.3549L206.942 16.8905L216.372 17.2909C216.372 17.2909 214.015 13.2651 217.596 11.9973C221.154 10.7073 224.824 10.9741 224.824 10.9741L227.983 19.1147L252.649 21.0943C252.649 21.0943 252.604 12.7535 256.186 11.4635C259.744 10.1735 272.066 22.3843 272.066 22.3843L279.517 24.4973L280.896 29.6129L285.678 30.8585L285.967 35.0178L286.613 37.064L280.385 37.4866C280.385 37.4866 290.594 95.7829 288.303 115.778Z" fill="#F6DA93"></path>
<path d="M176.383 277.562L179.497 243.71L172.224 237.972L173.247 176.517C173.247 176.517 170.645 174.96 171.179 171.312C171.69 167.665 175.338 162.972 180.543 162.46C185.747 161.926 249.293 169.755 257.633 170.267C265.974 170.801 272.736 170.267 272.736 170.267L273.27 172.869L283.145 178.608V183.812L283.679 186.415L284.19 190.062C284.19 190.062 292.02 189.017 292.531 192.153C293.043 195.267 293.576 197.358 291.486 197.358H285.236L283.145 202.051L280.543 203.074L279.52 212.46C279.52 212.46 283.679 210.369 284.724 214.017C285.77 217.665 285.236 221.312 285.236 221.312L276.895 223.915L273.27 248.403C273.27 248.403 281.588 248.915 282.633 252.562C283.679 256.21 270.645 267.665 270.645 267.665L268.043 274.96L262.838 276.005L261.281 280.698H257.122L255.031 281.21V274.96C255.031 274.96 196.179 281.21 176.383 277.562Z" fill="#95F492"></path>
<path d="M5.4159 1.04531L1.61252 137.834L131.439 134.052L125.122 1.04531H5.4159Z" stroke="#141316" stroke-width="2.09075"></path>
<path d="M164.377 1.04535H296.739L299.898 133.407L163.754 134.052L164.377 1.04535Z" stroke="#141316" stroke-width="2.09075"></path>
<path d="M165.645 158.741L301.165 160.009L293.581 288.568L161.842 287.3L165.645 158.741Z" stroke="#141316" stroke-width="2.09075"></path>
<path d="M133.979 156.842L127.64 290.472L6.68814 291.739V157.464L133.979 156.842Z" stroke="#141316" stroke-width="2.09075"></path>
<path d="M207.82 61.2055L182.82 79.4439C182.82 79.4439 160.934 59.6486 148.968 58.6032C136.98 57.5578 129.684 58.6032 127.616 72.1486C125.525 85.694 136.468 91.944 146.877 102.353C157.309 112.762 202.616 156.512 204.684 167.967C206.775 179.444 209.377 196.103 183.332 221.103C157.309 246.103 138.559 237.762 123.434 231.001C108.332 224.217 89.5818 210.16 89.5818 210.16L109.377 186.717C109.377 186.717 142.184 211.206 159.911 210.16C177.616 209.115 182.82 207.558 182.82 195.592C182.82 183.603 168.23 167.967 155.73 157.046C143.23 146.103 102.616 104.444 103.661 91.9439C104.684 79.4439 108.332 64.8532 121.877 54.4439C135.423 44.0124 160.423 27.8648 178.661 39.3194C196.877 50.7963 207.82 61.2055 207.82 61.2055Z" fill="#1E293B"></path>
<path d="M262.507 120.583L275.518 108.594L288.018 120.071L275.007 132.571L262.507 120.583Z" fill="#1E293B"></path>
<path d="M213.548 55.9987L223.445 47.1464V36.7371C223.445 36.7371 227.093 37.2487 239.593 29.9533H242.195L240.105 46.6126L256.786 45.5894L252.605 58.601H239.593C239.593 58.601 235.434 105.999 238.036 108.601C240.638 111.203 241.15 116.408 250.536 116.942C250.536 116.942 244.286 130.999 235.434 131.51C235.434 131.51 218.752 129.442 218.752 109.135C218.752 88.8056 221.888 58.601 221.888 58.601L213.036 58.0894L213.548 55.9987Z" fill="#1E293B"></path>
</svg><style>@media (prefers-color-scheme: light) { :root { filter: none; } }
@media (prefers-color-scheme: dark) { :root { filter: none; } }
</style></svg>